<svg width="128" height="130" viewBox="0 0 128 130" fill="none" xmlns="http://www.w3.org/2000/svg">
<circle cx="64" cy="64" r="64" fill="black"/>
<path d="M81.7045 67.994C79.4775 72.5064 76.463 77.0054 73.3745 81.0427C70.2956 85.0673 67.2063 88.5514 64.8827 91.032C64.5739 91.3616 64.279 91.6731 64 91.9653C63.721 91.6731 63.4261 91.3616 63.1173 91.032C60.7937 88.5514 57.7044 85.0673 54.6255 81.0427C51.537 77.0054 48.5226 72.5064 46.2955 67.994C44.0454 63.4351 42.75 59.1631 42.75 55.5C42.75 43.7639 52.2639 34.25 64 34.25C75.7361 34.25 85.25 43.7639 85.25 55.5C85.25 59.1631 83.9546 63.4351 81.7045 67.994ZM64 98C64 98 89.5 73.8333 89.5 55.5C89.5 41.4167 78.0833 30 64 30C49.9167 30 38.5 41.4167 38.5 55.5C38.5 73.8333 64 98 64 98Z" fill="white"/>
<path d="M64 64C59.3056 64 55.5 60.1944 55.5 55.5C55.5 50.8056 59.3056 47 64 47C68.6944 47 72.5 50.8056 72.5 55.5C72.5 60.1944 68.6944 64 64 64ZM64 68.25C71.0416 68.25 76.75 62.5416 76.75 55.5C76.75 48.4584 71.0416 42.75 64 42.75C56.9584 42.75 51.25 48.4584 51.25 55.5C51.25 62.5416 56.9584 68.25 64 68.25Z" fill="white"/>
</svg>
