<svg width="136" height="135" viewBox="0 0 136 135" fill="none" xmlns="http://www.w3.org/2000/svg">
<circle cx="64" cy="71" r="64" fill="black"/>
<path d="M91.1488 62.25C95.8394 62.25 104 66.2148 104 71C104 75.9219 95.8394 79.75 91.1488 79.75H75.1568L61.3729 103.799C60.5911 105.166 59.1373 106 57.5601 106H49.8521C48.3983 106 47.3422 104.605 47.7399 103.211L54.4604 79.75H40.3611L34.4361 87.625C34.0247 88.1719 33.3663 88.5 32.6806 88.5H26.9201C25.8503 88.5 25 87.6387 25 86.5859C25 86.4082 25.0274 86.2305 25.0686 86.0527L29.3889 71L25.0686 55.9473C25.0137 55.7695 25 55.5918 25 55.4141C25 54.3477 25.8641 53.5 26.9201 53.5H32.6806C33.3663 53.5 34.0247 53.8281 34.4361 54.375L40.3611 62.25H54.4741L47.7536 38.7891C47.3422 37.3945 48.3983 36 49.8521 36H57.5601C59.1373 36 60.5911 36.8477 61.3729 38.2012L75.1568 62.25H91.1488Z" fill="white"/>
</svg>
