<svg width="128" height="130" viewBox="0 0 128 130" fill="none" xmlns="http://www.w3.org/2000/svg">
<circle cx="64" cy="64" r="64" fill="black"/>
<path d="M41.5 42.5C37.9308 42.5 34.944 44.9931 34.1859 48.3329L64 66.5526L93.8141 48.3329C93.056 44.9931 90.0692 42.5 86.5 42.5H41.5Z" fill="white"/>
<path d="M34 79.2522V52.6141L55.762 65.9131L34 79.2522Z" fill="white"/>
<path d="M59.3553 68.1089L34.7195 83.2096C35.9223 85.746 38.5063 87.5 41.5 87.5H64.9602C64.3384 85.7406 64 83.8473 64 81.875C64 76.6884 66.3399 72.0484 70.0216 68.9529L68.6447 68.1089L64 70.9474L59.3553 68.1089Z" fill="white"/>
<path d="M94 71.2675V52.6141L72.238 65.9131L73.5055 66.69C75.7322 65.6073 78.2327 65 80.875 65C86.1761 65 90.9063 67.4444 94 71.2675Z" fill="white"/>
<path d="M93.377 80.9158C93.377 85.2936 91.2127 88.5072 87.4252 88.5072C85.5397 88.5072 83.6705 87.6546 83.2278 86.0806H83.0639C82.6212 87.6382 81.0308 88.4908 79.26 88.4908C76.3743 88.4908 74.5379 86.4577 74.5379 83.1129V81.129C74.5379 77.9646 76.3415 75.8823 79.26 75.8823C81.4571 75.8823 82.5228 77.1284 82.8343 78.2433H82.9491V76.1118H86.3431V84.3262C86.3431 85.3428 87.0153 85.9002 87.8843 85.9002C89.0648 85.9002 90.2781 84.3426 90.2781 80.6863V80.2436C90.2781 75.456 86.7202 71.5209 80.9652 71.5209H80.8176C74.8823 71.5209 70.9144 75.5215 70.9144 81.7356V82.3259C70.9144 89.327 75.5545 92.2783 80.5553 92.2783H80.7192C82.6212 92.2783 84.228 92.0159 85.1462 91.606V94.3442C84.3264 94.7213 82.7359 95 80.5061 95H80.3421C73.1443 95 67.75 90.5731 67.75 82.4243V81.6209C67.75 73.8492 73.0787 68.75 80.8176 68.75H80.9488C88.9008 68.75 93.377 74.1115 93.377 80.1288V80.9158ZM78.227 81.7028V82.5554C78.227 84.7525 79.0796 85.5559 80.4077 85.5559C81.5718 85.5559 82.5228 84.9165 82.5228 82.7686V81.3913C82.5228 79.4566 81.4898 78.7352 80.3749 78.7352C79.0796 78.7352 78.227 79.6533 78.227 81.7028Z" fill="white"/>
</svg>
