<svg width="136" height="135" viewBox="0 0 136 135" fill="none" xmlns="http://www.w3.org/2000/svg">
<circle cx="64" cy="71" r="64" fill="black"/>
<path d="M64 33.7333C48.3519 33.7333 35.6667 46.5678 35.6667 62.4V68.1333H41.3333C44.4629 68.1333 47 70.7002 47 73.8667V91.0667C47 94.2331 44.4629 96.8 41.3333 96.8H35.6667C32.5371 96.8 30 94.2331 30 91.0667V62.4C30 43.4014 45.2223 28 64 28C82.7777 28 98 43.4014 98 62.4V96.8C98 104.716 91.6574 111.133 83.8333 111.133H71.7419C70.7621 112.847 68.9308 114 66.8333 114H61.1667C58.0371 114 55.5 111.433 55.5 108.267C55.5 105.1 58.0371 102.533 61.1667 102.533H66.8333C68.9308 102.533 70.7621 103.686 71.7419 105.4H83.8333C88.5278 105.4 92.3333 101.55 92.3333 96.8H86.6667C83.537 96.8 81 94.2331 81 91.0667V73.8667C81 70.7002 83.5371 68.1333 86.6667 68.1333H92.3333V62.4C92.3333 46.5678 79.6481 33.7333 64 33.7333Z" fill="white"/>
</svg>
