<svg width="128" height="130" viewBox="0 0 128 130" fill="none" xmlns="http://www.w3.org/2000/svg">
<circle cx="64" cy="64" r="64" fill="black"/>
<path d="M71.8859 48.1348L51.4823 40.4281C49.7341 39.7744 47.7973 39.8693 46.1328 40.7127L41.3277 43.127C40.1656 43.7174 40.0819 45.3515 41.1706 46.0579L56.5492 56.0208L46.2375 61.3238L40.1447 58.5932C39.2339 58.182 38.1766 58.2031 37.2867 58.6565L33.9158 60.3538C32.9422 60.8494 32.6805 62.125 33.3923 62.9579L41.045 71.9508C41.6836 72.6994 42.6153 73.1316 43.5889 73.1316H58.0044C58.5278 73.1316 59.0408 73.0051 59.5014 72.7732L88.0706 58.3929C92.9386 55.9364 96.7073 51.7194 98.6231 46.585C99.6177 43.9283 97.66 41.0817 94.8334 41.0817H88.8244C86.7097 41.0817 84.6159 41.5878 82.7316 42.5577L71.8859 48.1348ZM32 86.6263C32 88.4924 33.497 90 35.35 90H95.65C97.503 90 99 88.4924 99 86.6263C99 84.7603 97.503 83.2527 95.65 83.2527H35.35C33.497 83.2527 32 84.7603 32 86.6263Z" fill="white"/>
</svg>
