<svg width="128" height="130" viewBox="0 0 128 130" fill="none" xmlns="http://www.w3.org/2000/svg">
<circle cx="64" cy="64" r="64" fill="black" fill-opacity="1"/>
<g clip-path="url(#clip0_1_5)">
<path d="M64 64.5C68.8497 64.5 73.5007 62.5772 76.93 59.1547C80.3592 55.7322 82.2857 51.0902 82.2857 46.25C82.2857 41.4098 80.3592 36.7678 76.93 33.3453C73.5007 29.9228 68.8497 28 64 28C59.1503 28 54.4993 29.9228 51.07 33.3453C47.6408 36.7678 45.7143 41.4098 45.7143 46.25C45.7143 51.0902 47.6408 55.7322 51.07 59.1547C54.4993 62.5772 59.1503 64.5 64 64.5ZM57.4714 71.3438C43.4 71.3438 32 82.7215 32 96.7654C32 99.1037 33.9 101 36.2429 101H91.7571C94.1 101 96 99.1037 96 96.7654C96 82.7215 84.6 71.3438 70.5286 71.3438H57.4714Z" fill="white"/>
</g>
<defs>
<clipPath id="clip0_1_5">
<rect width="64" height="73" fill="white" transform="translate(32 28)"/>
</clipPath>
</defs>
</svg>
