<svg width="96" height="96" viewBox="0 0 96 96" fill="none" xmlns="http://www.w3.org/2000/svg">
<g clip-path="url(#clip0_30_77)">
<path d="M48 9C26.4562 9 9 26.4562 9 48V55.5C9 57.9938 6.99375 60 4.5 60C2.00625 60 0 57.9938 0 55.5V48C0 21.4875 21.4875 0 48 0C74.5125 0 96 21.4875 96 48V75.0188C96 84.1312 88.6125 91.5188 79.4812 91.5188L58.8 91.5C57.2438 94.1813 54.3375 96 51 96H45C40.0312 96 36 91.9688 36 87C36 82.0312 40.0312 78 45 78H51C54.3375 78 57.2438 79.8187 58.8 82.5L79.5 82.5188C83.6438 82.5188 87 79.1625 87 75.0188V48C87 26.4562 69.5437 9 48 9ZM27 39H30C33.3187 39 36 41.6813 36 45V66C36 69.3187 33.3187 72 30 72H27C20.3813 72 15 66.6188 15 60V51C15 44.3812 20.3813 39 27 39ZM69 39C75.6188 39 81 44.3812 81 51V60C81 66.6188 75.6188 72 69 72H66C62.6813 72 60 69.3187 60 66V45C60 41.6813 62.6813 39 66 39H69Z" fill="white"/>
</g>
<defs>
<clipPath id="clip0_30_77">
<rect width="96" height="96" fill="white"/>
</clipPath>
</defs>
</svg>
