<svg width="88" height="83" viewBox="0 0 88 83" fill="none" xmlns="http://www.w3.org/2000/svg">
<path d="M66.8004 5.63605C71.0646 1.78655 81.7375 -1.30589 85.6651 3.04472C89.7048 7.51963 85.4282 17.6974 81.164 21.5469L66.6259 34.6712L73.834 67.8482C74.2454 69.7328 73.6083 71.6842 72.1744 72.9786L65.1672 79.3044C63.8456 80.4975 61.7409 80.0964 60.9579 78.502L47.8112 51.6563L34.9938 63.2273L36.0711 75.2497C36.1459 76.0846 35.8167 76.9232 35.1933 77.4859L29.9566 82.2134C28.9841 83.0914 27.5041 83.0061 26.64 82.049C26.4942 81.8874 26.3732 81.7033 26.2647 81.5079L17.8374 64.2766L1.55492 54.1364C1.35917 54.0198 1.20082 53.8695 1.05494 53.7079C0.179661 52.7383 0.26943 51.2585 1.22949 50.3918L6.46619 45.6643C7.08961 45.1016 7.9574 44.8596 8.78031 45.0191L20.6302 47.3165L33.4601 35.7342L8.09451 19.9191C6.57586 18.9889 6.39133 16.8543 7.71297 15.6612L14.7202 9.33543C16.154 8.04101 18.1714 7.61857 19.993 8.20758L52.2624 18.7604L66.8004 5.63605Z" fill="white"/>
</svg>
