<svg width="23" height="26" viewBox="0 0 23 26" fill="none" xmlns="http://www.w3.org/2000/svg">
<g clip-path="url(#clip0_31_33)">
<path d="M4.92857 0C2.20759 0 0 2.18359 0 4.875V21.125C0 23.8164 2.20759 26 4.92857 26H19.7143H21.3571C22.2658 26 23 25.2738 23 24.375C23 23.4762 22.2658 22.75 21.3571 22.75V19.5C22.2658 19.5 23 18.7738 23 17.875V1.625C23 0.726172 22.2658 0 21.3571 0H19.7143H4.92857ZM4.92857 19.5H18.0714V22.75H4.92857C4.01987 22.75 3.28571 22.0238 3.28571 21.125C3.28571 20.2262 4.01987 19.5 4.92857 19.5ZM6.57143 7.3125C6.57143 6.86562 6.94107 6.5 7.39286 6.5H17.25C17.7018 6.5 18.0714 6.86562 18.0714 7.3125C18.0714 7.75938 17.7018 8.125 17.25 8.125H7.39286C6.94107 8.125 6.57143 7.75938 6.57143 7.3125ZM7.39286 9.75H17.25C17.7018 9.75 18.0714 10.1156 18.0714 10.5625C18.0714 11.0094 17.7018 11.375 17.25 11.375H7.39286C6.94107 11.375 6.57143 11.0094 6.57143 10.5625C6.57143 10.1156 6.94107 9.75 7.39286 9.75Z" fill="white"/>
</g>
<defs>
<clipPath id="clip0_31_33">
<rect width="23" height="26" fill="white"/>
</clipPath>
</defs>
</svg>
