<svg width="64" height="64" viewBox="0 0 64 64" fill="none" xmlns="http://www.w3.org/2000/svg">
<g clip-path="url(#clip0_31_21)">
<path d="M25.78 46.752V25.416H23.248C21.4346 26.3827 19.682 27.4593 18 28.64V31.42C19.5 30.392 21.876 28.94 23.032 28.312H23.08V46.752H25.78ZM30.532 41.532C30.72 44.092 32.908 47.156 37.344 47.156C42.376 47.156 45.344 42.892 45.344 35.672C45.344 27.936 42.22 25 37.532 25C33.828 25 30.344 27.688 30.344 32.236C30.344 36.876 33.64 39.316 37.048 39.316C40.032 39.316 41.968 37.812 42.58 36.156H42.688C42.672 41.42 40.844 44.812 37.468 44.812C34.812 44.812 33.436 43.012 33.268 41.532H30.532ZM42.344 32.264C42.344 35.048 40.108 36.984 37.608 36.984C35.204 36.984 33.032 35.452 33.032 32.184C33.032 28.892 35.36 27.344 37.704 27.344C40.236 27.344 42.344 28.936 42.344 32.264Z" fill="white"/>
<path d="M14 0C14.5304 0 15.0391 0.210714 15.4142 0.585786C15.7893 0.960859 16 1.46957 16 2V4H48V2C48 1.46957 48.2107 0.960859 48.5858 0.585786C48.9609 0.210714 49.4696 0 50 0C50.5304 0 51.0391 0.210714 51.4142 0.585786C51.7893 0.960859 52 1.46957 52 2V4H56C58.1217 4 60.1566 4.84285 61.6569 6.34315C63.1571 7.84344 64 9.87827 64 12V56C64 58.1217 63.1571 60.1566 61.6569 61.6569C60.1566 63.1571 58.1217 64 56 64H8C5.87827 64 3.84344 63.1571 2.34315 61.6569C0.842855 60.1566 0 58.1217 0 56V12C0 9.87827 0.842855 7.84344 2.34315 6.34315C3.84344 4.84285 5.87827 4 8 4H12V2C12 1.46957 12.2107 0.960859 12.5858 0.585786C12.9609 0.210714 13.4696 0 14 0ZM4 16V56C4 57.0609 4.42143 58.0783 5.17157 58.8284C5.92172 59.5786 6.93913 60 8 60H56C57.0609 60 58.0783 59.5786 58.8284 58.8284C59.5786 58.0783 60 57.0609 60 56V16H4Z" fill="white"/>
</g>
<defs>
<clipPath id="clip0_31_21">
<rect width="64" height="64" fill="white"/>
</clipPath>
</defs>
</svg>
